<svg width="32" height="32" viewBox="0 0 32 32" fill="none" xmlns="http://www.w3.org/2000/svg">
<path d="M16 6C18.5 6 20.75 6.9 22.5 8.4C21.4014 9.33808 20.5195 10.5034 19.9153 11.8156C19.311 13.1277 18.9987 14.5554 19 16C19 19.04 20.36 21.77 22.5 23.6C20.75 25.1 18.5 26 16 26C13.5 26 11.25 25.1 9.50001 23.6C10.5986 22.6619 11.4805 21.4966 12.0847 20.1844C12.689 18.8723 13.0013 17.4446 13 16C13 12.96 11.64 10.23 9.50001 8.4C11.25 6.9 13.5 6 16 6ZM26 16C26 18.32 25.21 20.45 23.88 22.15C22.9779 21.3992 22.2522 20.4589 21.7545 19.396C21.2567 18.3331 20.9991 17.1737 21 16C21 13.53 22.12 11.32 23.88 9.85C25.2567 11.604 26.0034 13.7702 26 16ZM6.00001 16C6.00001 13.68 6.79001 11.55 8.12001 9.85C9.02209 10.6008 9.74777 11.5411 10.2455 12.604C10.7433 13.6669 11.0009 14.8263 11 16C11 18.47 9.88001 20.68 8.12001 22.15C6.74328 20.3959 5.99658 18.2298 6.00001 16Z" fill="#262626"/>
</svg>
