<svg width="32" height="32" viewBox="0 0 32 32" fill="none" xmlns="http://www.w3.org/2000/svg">
<path fill-rule="evenodd" clip-rule="evenodd" d="M15 7C14.2044 7 13.4413 7.31607 12.8787 7.87868C12.3161 8.44129 12 9.20435 12 10V11H9C8.20435 11 7.44129 11.3161 6.87868 11.8787C6.31607 12.4413 6 13.2044 6 14V22C6 22.7956 6.31607 23.5587 6.87868 24.1213C7.44129 24.6839 8.20435 25 9 25H23C23.7956 25 24.5587 24.6839 25.1213 24.1213C25.6839 23.5587 26 22.7956 26 22V14C26 13.2044 25.6839 12.4413 25.1213 11.8787C24.5587 11.3161 23.7956 11 23 11H20V10C20 9.20435 19.6839 8.44129 19.1213 7.87868C18.5587 7.31607 17.7956 7 17 7H15ZM18 11H14V10C14 9.73478 14.1054 9.48043 14.2929 9.29289C14.4804 9.10536 14.7348 9 15 9H17C17.2652 9 17.5196 9.10536 17.7071 9.29289C17.8946 9.48043 18 9.73478 18 10V11Z" fill="#262626"/>
</svg>
