<svg width="32" height="32" viewBox="0 0 32 32" fill="none" xmlns="http://www.w3.org/2000/svg">
<path d="M11.2812 10.4313L10.2617 13.4286H21.7383L20.7188 10.4313C20.543 9.91696 20.0703 9.57143 19.5391 9.57143H12.4609C11.9297 9.57143 11.457 9.91696 11.2812 10.4313ZM7.54688 13.6214L8.92188 9.58348C9.44922 8.03661 10.8672 7 12.4609 7H19.5391C21.1328 7 22.5508 8.03661 23.0781 9.58348L24.4531 13.6214C25.3594 14.0071 26 14.9272 26 16V23.7143C26 24.4254 25.4414 25 24.75 25H23.5C22.8086 25 22.25 24.4254 22.25 23.7143V21.7857H9.75V23.7143C9.75 24.4254 9.19141 25 8.5 25H7.25C6.55859 25 6 24.4254 6 23.7143V16C6 14.9272 6.64062 14.0071 7.54688 13.6214ZM11 17.2857C11 16.9447 10.8683 16.6177 10.6339 16.3766C10.3995 16.1355 10.0815 16 9.75 16C9.41848 16 9.10054 16.1355 8.86612 16.3766C8.6317 16.6177 8.5 16.9447 8.5 17.2857C8.5 17.6267 8.6317 17.9537 8.86612 18.1949C9.10054 18.436 9.41848 18.5714 9.75 18.5714C10.0815 18.5714 10.3995 18.436 10.6339 18.1949C10.8683 17.9537 11 17.6267 11 17.2857ZM22.25 18.5714C22.5815 18.5714 22.8995 18.436 23.1339 18.1949C23.3683 17.9537 23.5 17.6267 23.5 17.2857C23.5 16.9447 23.3683 16.6177 23.1339 16.3766C22.8995 16.1355 22.5815 16 22.25 16C21.9185 16 21.6005 16.1355 21.3661 16.3766C21.1317 16.6177 21 16.9447 21 17.2857C21 17.6267 21.1317 17.9537 21.3661 18.1949C21.6005 18.436 21.9185 18.5714 22.25 18.5714Z" fill="#262626"/>
</svg>
