<svg width="16" height="16" viewBox="0 0 16 16" fill="none" xmlns="http://www.w3.org/2000/svg">
<path d="M3.0506 3.04962C3.23813 2.86215 3.49243 2.75684 3.7576 2.75684C4.02276 2.75684 4.27707 2.86215 4.4646 3.04962L8.0006 6.58562L11.5366 3.04962C11.7252 2.86746 11.9778 2.76667 12.24 2.76895C12.5022 2.77123 12.753 2.8764 12.9384 3.0618C13.1238 3.24721 13.229 3.49802 13.2313 3.76022C13.2336 4.02242 13.1328 4.27502 12.9506 4.46362L9.4146 7.99962L12.9506 11.5356C13.1328 11.7242 13.2336 11.9768 13.2313 12.239C13.229 12.5012 13.1238 12.752 12.9384 12.9374C12.753 13.1228 12.5022 13.228 12.24 13.2303C11.9778 13.2326 11.7252 13.1318 11.5366 12.9496L8.0006 9.41362L4.4646 12.9496C4.276 13.1318 4.02339 13.2326 3.7612 13.2303C3.499 13.228 3.24819 13.1228 3.06278 12.9374C2.87737 12.752 2.7722 12.5012 2.76992 12.239C2.76765 11.9768 2.86844 11.7242 3.0506 11.5356L6.5866 7.99962L3.0506 4.46362C2.86313 4.27609 2.75781 4.02179 2.75781 3.75662C2.75781 3.49146 2.86313 3.23715 3.0506 3.04962Z" fill="white"/>
</svg>
