<svg width="20" height="20" viewBox="0 0 20 20" fill="none" xmlns="http://www.w3.org/2000/svg">
<path d="M7.72554 15.2553C9.33807 15.4401 10.9604 15.0418 12.3012 14.1377L16.0802 17.9166C16.0802 17.9166 16.0802 17.9167 16.0802 17.9167C16.324 18.1606 16.6546 18.2976 16.9994 18.2978C17.3442 18.2979 17.6749 18.161 17.9189 17.9173C18.1628 17.6735 18.2999 17.3429 18.3 16.998C18.3001 16.6532 18.1633 16.3225 17.9195 16.0786L17.9194 16.0785L14.1395 12.2985C15.0433 10.9568 15.4408 9.33365 15.2547 7.72071C15.0584 6.01832 14.2265 4.45284 12.9255 3.33746C11.6245 2.22208 9.95035 1.63906 8.23795 1.70505C6.52555 1.77103 4.9012 2.48114 3.68989 3.69333C2.47857 4.90551 1.76962 6.53036 1.70486 8.24281C1.6401 9.95526 2.22432 11.629 3.34063 12.9292C4.45694 14.2294 6.02302 15.0602 7.72554 15.2553ZM13.7004 8.4979C13.7004 9.18075 13.566 9.85691 13.3046 10.4878C13.0433 11.1186 12.6603 11.6919 12.1775 12.1747C11.6946 12.6576 11.1214 13.0406 10.4905 13.3019C9.85966 13.5632 9.1835 13.6977 8.50065 13.6977C7.81781 13.6977 7.14165 13.5632 6.51078 13.3019C5.87991 13.0406 5.30669 12.6576 4.82384 12.1747C4.341 11.6919 3.95799 11.1186 3.69667 10.4878C3.43536 9.85691 3.30086 9.18075 3.30086 8.4979C3.30086 7.11883 3.84869 5.79625 4.82384 4.82109C5.79899 3.84594 7.12158 3.29811 8.50065 3.29811C9.87972 3.29811 11.2023 3.84594 12.1775 4.82109C13.1526 5.79625 13.7004 7.11883 13.7004 8.4979Z" fill="white" stroke="white" stroke-width="0.6"/>
</svg>
