<svg width="32" height="32" viewBox="0 0 32 32" fill="none" xmlns="http://www.w3.org/2000/svg">
<g clip-path="url(#clip0_25_68545)">
<path fill-rule="evenodd" clip-rule="evenodd" d="M8 11C8 9.67392 8.52678 8.40215 9.46447 7.46447C10.4021 6.52678 11.6739 6 13 6C13.482 6 13.938 6.17 14.114 6.667C14.2522 7.05674 14.5077 7.39411 14.8454 7.63271C15.1831 7.87131 15.5865 7.99942 16 7.99942C16.4135 7.99942 16.8169 7.87131 17.1546 7.63271C17.4923 7.39411 17.7478 7.05674 17.886 6.667C18.063 6.17 18.518 6 19 6C20.3261 6 21.5979 6.52678 22.5355 7.46447C23.4732 8.40215 24 9.67392 24 11V11.5C24 11.8978 23.842 12.2794 23.5607 12.5607C23.2794 12.842 22.8978 13 22.5 13H20C20 13.77 19.924 14.554 20.438 15.197L22.466 17.732C23.459 18.9732 24 20.5154 24 22.105V23C24 23.7956 23.6839 24.5587 23.1213 25.1213C22.5587 25.6839 21.7956 26 21 26H11C10.2044 26 9.44129 25.6839 8.87868 25.1213C8.31607 24.5587 8 23.7956 8 23V22.105C7.99999 20.5154 8.54099 18.9732 9.534 17.732L11.562 15.197C12.076 14.554 12 13.771 12 13H9.5C9.10218 13 8.72064 12.842 8.43934 12.5607C8.15804 12.2794 8 11.8978 8 11.5V11Z" fill="#FF6B00"/>
</g>
<defs>
<clipPath id="clip0_25_68545">
<rect width="32" height="32" fill="white"/>
</clipPath>
</defs>
</svg>
