<svg width="32" height="32" viewBox="0 0 32 32" fill="none" xmlns="http://www.w3.org/2000/svg">
<g clip-path="url(#clip0_25_68524)">
<path d="M8 8.50084C8.00002 8.36394 8.02656 8.22843 8.07807 8.10222C8.12959 7.97601 8.20503 7.86165 8.3 7.76583C9.38984 6.66602 10.8458 6.03508 12.3717 6.00142C13.8975 5.96776 15.3784 6.53391 16.513 7.58465L16.864 7.9223C17.5934 8.58021 18.5302 8.9429 19.5 8.9429C20.4698 8.9429 21.4066 8.58021 22.136 7.9223L22.385 7.68862C22.995 7.1914 23.912 7.58876 23.995 8.38451L24 8.50084V17.7657C24 17.9026 23.9734 18.0381 23.9219 18.1643C23.8704 18.2905 23.795 18.4049 23.7 18.5007C22.6102 19.6005 21.1542 20.2315 19.6283 20.2651C18.1025 20.2988 16.6216 19.7326 15.487 18.6819L15.136 18.3442C14.4295 17.707 13.5278 17.3461 12.5887 17.3246C11.6497 17.3032 10.7332 17.6226 10 18.2269V24.9717C9.99972 25.2341 9.90212 25.4865 9.72715 25.6772C9.55218 25.868 9.31305 25.9829 9.05861 25.9982C8.80416 26.0136 8.55362 25.9284 8.35817 25.76C8.16271 25.5916 8.0371 25.3527 8.007 25.0922L8 24.9717V8.50084Z" fill="#FF6B00"/>
</g>
<defs>
<clipPath id="clip0_25_68524">
<rect width="32" height="32" fill="white"/>
</clipPath>
</defs>
</svg>
