<svg width="32" height="32" viewBox="0 0 32 32" fill="none" xmlns="http://www.w3.org/2000/svg">
<path d="M27.994 15.9805C27.994 16.6836 27.395 17.2344 26.7161 17.2344H25.4382L25.4662 23.4922C25.4662 23.5977 25.4582 23.7031 25.4462 23.8086V24.4375C25.4462 25.3008 24.7314 26 23.8488 26H23.2099C23.166 26 23.122 26 23.0781 25.9961C23.0222 26 22.9663 26 22.9104 26H20.6541C19.7716 26 19.0568 25.3008 19.0568 24.4375V21C19.0568 20.3086 18.4857 19.75 17.7789 19.75H15.2231C14.5163 19.75 13.9452 20.3086 13.9452 21V24.4375C13.9452 25.3008 13.2304 26 12.3478 26H10.1155C10.0556 26 9.99574 25.9961 9.93584 25.9922C9.88792 25.9961 9.84 26 9.79207 26H9.15313C8.27059 26 7.55577 25.3008 7.55577 24.4375V20.0625C7.55577 20.0273 7.55577 19.9883 7.55977 19.9531V17.2344H6.27789C5.55908 17.2344 5 16.6875 5 15.9805C5 15.6289 5.1198 15.3164 5.39934 15.043L15.6384 6.3125C15.9179 6.03906 16.2374 6 16.517 6C16.7965 6 17.116 6.07812 17.3556 6.27344L27.5547 15.043C27.8742 15.3164 28.0339 15.6289 27.994 15.9805Z" fill="#FF6B00"/>
</svg>
