<svg width="32" height="32" viewBox="0 0 32 32" fill="none" xmlns="http://www.w3.org/2000/svg">
<path d="M13.7594 9.03998C12.2541 8.35009 10.1501 8.01214 7.33322 8.00015C7.06757 7.99668 6.80712 8.07104 6.58662 8.21331C6.40563 8.33075 6.25747 8.48907 6.15518 8.67437C6.05289 8.85966 5.9996 9.06624 6 9.27594V20.7181C6 21.4916 6.57329 22.0751 7.33322 22.0751C10.2942 22.0751 13.2644 22.3407 15.0434 23.9548C15.0677 23.977 15.0983 23.9918 15.1314 23.9975C15.1644 24.0031 15.1985 23.9993 15.2293 23.9865C15.2601 23.9737 15.2863 23.9525 15.3046 23.9256C15.323 23.8986 15.3327 23.8671 15.3326 23.8348V10.3526C15.3326 10.2616 15.3124 10.1717 15.2731 10.0889C15.2339 10.0061 15.1766 9.93236 15.1051 9.87265C14.6976 9.53824 14.2449 9.25815 13.7594 9.03998ZM25.4117 8.21211C25.1911 8.0702 24.9306 7.99625 24.6651 8.00015C21.8483 8.01214 19.7443 8.34849 18.239 9.03998C17.7534 9.25776 17.3007 9.53729 16.8928 9.87105C16.8215 9.93086 16.7643 10.0046 16.7252 10.0874C16.686 10.1702 16.6658 10.2601 16.6658 10.351V23.834C16.6658 23.865 16.6753 23.8953 16.6931 23.9211C16.7109 23.9469 16.7363 23.967 16.766 23.979C16.7958 23.991 16.8285 23.9943 16.8602 23.9885C16.8919 23.9827 16.9211 23.9681 16.9441 23.9464C18.0136 22.9266 19.8905 22.0739 24.6668 22.0743C25.0204 22.0743 25.3595 21.9395 25.6095 21.6995C25.8595 21.4595 26 21.1339 26 20.7945V9.27634C26.0005 9.06623 25.9471 8.85923 25.8445 8.67362C25.7419 8.48802 25.5932 8.32952 25.4117 8.21211Z" fill="#FF6B00"/>
</svg>
