<svg width="16" height="17" viewBox="0 0 16 17" fill="none" xmlns="http://www.w3.org/2000/svg">
<path d="M8.503 12.5696C8.57012 12.6365 8.62337 12.716 8.6597 12.8035C8.69604 12.891 8.71474 12.9848 8.71474 13.0796C8.71474 13.1743 8.69604 13.2681 8.6597 13.3556C8.62337 13.4431 8.57012 13.5226 8.503 13.5895L8.14666 13.9458C7.47141 14.6211 6.55557 15.0004 5.60063 15.0004C4.64568 15.0004 3.72985 14.6211 3.0546 13.9458C2.37935 13.2706 2 12.3548 2 11.3998C2 10.4449 2.37935 9.52904 3.0546 8.85379L4.50159 7.4074C5.15038 6.757 6.02331 6.37929 6.94157 6.35163C7.85982 6.32397 8.7539 6.64845 9.44067 7.25862C9.51157 7.32165 9.56937 7.39802 9.61075 7.48338C9.65214 7.56875 9.67631 7.66142 9.68188 7.75612C9.68745 7.85083 9.67432 7.9457 9.64322 8.03532C9.61213 8.12495 9.56368 8.20757 9.50066 8.27848C9.43763 8.34938 9.36126 8.40717 9.2759 8.44856C9.19054 8.48995 9.09786 8.51412 9.00316 8.51969C8.90846 8.52526 8.81358 8.51212 8.72396 8.48103C8.63433 8.44993 8.55171 8.40149 8.48081 8.33847C8.06898 7.97272 7.53297 7.77814 6.98242 7.79453C6.43186 7.81092 5.90838 8.03705 5.51904 8.42665L4.07325 9.87124C3.66817 10.2763 3.44059 10.8257 3.44059 11.3986C3.44059 11.9715 3.66817 12.5209 4.07325 12.926C4.47834 13.3311 5.02775 13.5587 5.60063 13.5587C6.17351 13.5587 6.72292 13.3311 7.12801 12.926L7.48435 12.5696C7.55121 12.5027 7.63061 12.4496 7.718 12.4134C7.8054 12.3772 7.89907 12.3585 7.99368 12.3585C8.08828 12.3585 8.18196 12.3772 8.26936 12.4134C8.35675 12.4496 8.43615 12.5027 8.503 12.5696ZM12.9472 4.05089C12.2714 3.37668 11.3557 2.99805 10.4011 2.99805C9.44653 2.99805 8.5309 3.37668 7.8551 4.05089L7.49875 4.40724C7.36351 4.54248 7.28753 4.72591 7.28753 4.91717C7.28753 5.10842 7.36351 5.29185 7.49875 5.42709C7.63399 5.56233 7.81742 5.63831 8.00868 5.63831C8.19994 5.63831 8.38336 5.56233 8.5186 5.42709L8.87495 5.07074C9.28004 4.66566 9.82945 4.43808 10.4023 4.43808C10.9752 4.43808 11.5246 4.66566 11.9297 5.07074C12.3348 5.47583 12.5624 6.02524 12.5624 6.59812C12.5624 7.171 12.3348 7.72041 11.9297 8.1255L10.4833 9.57249C10.0936 9.96193 9.56986 10.1877 9.01917 10.2037C8.46848 10.2196 7.93251 10.0245 7.52095 9.65827C7.45004 9.59525 7.36742 9.54681 7.2778 9.51571C7.18817 9.48462 7.0933 9.47148 6.9986 9.47705C6.9039 9.48262 6.81122 9.50679 6.72586 9.54818C6.6405 9.58957 6.56412 9.64736 6.5011 9.71827C6.43807 9.78917 6.38963 9.87179 6.35854 9.96142C6.32744 10.051 6.3143 10.1459 6.31987 10.2406C6.32545 10.3353 6.34961 10.428 6.391 10.5134C6.43239 10.5987 6.49018 10.6751 6.56109 10.7381C7.24738 11.3481 8.14086 11.6728 9.05868 11.6457C9.9765 11.6186 10.8493 11.2418 11.4984 10.5923L12.9454 9.14595C13.6204 8.47031 13.9997 7.55443 14 6.59939C14.0003 5.64435 13.6217 4.7282 12.9472 4.05209V4.05089Z" fill="#262626"/>
</svg>
