<svg width="32" height="32" viewBox="0 0 32 32" fill="none" xmlns="http://www.w3.org/2000/svg">
<path fill-rule="evenodd" clip-rule="evenodd" d="M16.6324 17.4801C16.5957 17.3512 16.4779 17.2622 16.3439 17.2622H15.9692C15.838 17.2622 15.722 17.3475 15.6829 17.4728L13.4219 24.7088C13.3827 24.8344 13.2661 24.9198 13.1345 24.9193L4.39749 24.8864C4.19825 24.8857 4.05508 24.6945 4.11043 24.5031L6.69695 15.5597C6.7343 15.4306 6.85304 15.342 6.9875 15.3431L25.0597 15.4851C25.1924 15.4862 25.3087 15.5743 25.3455 15.7018L27.8906 24.502C27.9457 24.6923 27.8044 24.8828 27.6063 24.8853L19.0018 24.997C18.8663 24.9988 18.7465 24.9095 18.7094 24.7792L16.6324 17.4801ZM8.54342 14.0719C8.24812 14.0751 8.12629 13.6946 8.36855 13.5258L14.2781 9.40628C14.4236 9.30482 14.4498 9.09992 14.3345 8.96512L13.682 8.2026C13.575 8.0776 13.5887 7.88976 13.7126 7.78156L14.4285 7.15658C14.5335 7.06488 14.6879 7.05764 14.8011 7.13911L15.9754 7.98456C16.0785 8.0588 16.2172 8.06003 16.3216 7.98763L17.4701 7.19131C17.5962 7.10389 17.7679 7.12568 17.8681 7.24181L18.5418 8.02217C18.654 8.1521 18.6345 8.34948 18.499 8.45493L17.9208 8.90505C17.7629 9.028 17.7674 9.26819 17.9298 9.38518L23.4555 13.3661C23.6904 13.5353 23.5729 13.9063 23.2834 13.9095L8.54342 14.0719Z" fill="#262626"/>
</svg>
